# xmcd CD database file
#
# Track frame offsets:
#	183
#	10383
#	22833
#	36783
#	49683
#	72258
#	85033
#	99633
#	112908
#	125933
#	137358
#	150433
#	163658
#	174958
#
# Disc length: 2530 seconds
#
# Revision: 0
# Processed by: cddbd v1.5.2PL0 Copyright (c) Steve Scherf et al.
# Submitted via: CDex 1.51
#
DISCID=a509e00e
DTITLE=Various Artist - Blues Volume 1 (Collection Silver)
DYEAR=1995
DGENRE=Blues
TTITLE0=John Lee Hooker - Dimples
TTITLE1=Muddy Water - I'm your hoochie coochie man
TTITLE2=Howlin Wolf - Smoke stack lightinin'
TTITLE3=Jimmy Rogers - She loves another man
TTITLE4=Memphis Slim - Boogie Jam
TTITLE5=Sonny Boy Williamson - All my love in pain
TTITLE6=Buddy Guy - My time after a while
TTITLE7=Muddy aters - Mannish Boy
TTITLE8=Howlin Wolf - No place to go
TTITLE9=John Lee Hooker - Boom boom
TTITLE10=Sonny Boy Williamson - Let me explain
TTITLE11=Buddy Guy - Let me love you baby
TTITLE12=Jimmy Rogers - Can't keep from worrying
TTITLE13=Muddy Waters - Baby please don't go
EXTD=YEAR: 1995
EXTT0=
EXTT1=
EXTT2=
EXTT3=
EXTT4=
EXTT5=
EXTT6=
EXTT7=
EXTT8=
EXTT9=
EXTT10=
EXTT11=
EXTT12=
EXTT13=
PLAYORDER=
